<?xml version="1.0" encoding="utf-8"?>
<!-- Generator: Adobe Illustrator 19.2.0, SVG Export Plug-In . SVG Version: 6.00 Build 0)  -->
<svg version="1.1" id="Layer_1" xmlns="http://www.w3.org/2000/svg" xmlns:xlink="http://www.w3.org/1999/xlink" x="0px" y="0px"
	 viewBox="0 0 324.3 82" style="enable-background:new 0 0 324.3 82;" xml:space="preserve">
<style type="text/css">
	.st0{fill:none;}
	.st1{fill:#FFFFFF;}
	.st2{fill:#010101;}
</style>
<polygon class="st0" points="16,29 128.3,29 120.6,23 16,23 "/>
<polygon class="st0" points="122,52 14.7,52 22.4,59 122,59 "/>
<polygon class="st1" points="122,59 22.4,59 44.1,82 138,82 138,72 122,72 "/>
<polygon class="st1" points="16,16 16,23 120.6,23 98.9,0 0,0 0,22.3 0,22.3 0,16 "/>
<polygon class="st1" points="122,45 138,45 138,39.8 128.3,29 16,29 16,43 6.2,43 14.7,52 122,52 "/>
<polygon class="st2" points="0,30 0,30 0,36.5 0,36.5 "/>
<rect y="23" class="st1" width="16" height="6"/>
<rect y="16" class="st1" width="16" height="7"/>
<polygon class="st1" points="6.2,43 16,43 16,29 0,29 0,36.5 "/>
<polygon class="st1" points="138,52 122,52 122,59 138,59 138,72.9 138,72.9 138,44.8 138,44.8 "/>
<rect x="122" y="59" class="st1" width="16" height="13"/>
<rect x="122" y="45" class="st1" width="16" height="7"/>
<g>
	<path class="st1" d="M152.2,65c-0.9,0-1.7,0.2-2.3,0.6c-0.6,0.4-0.9,1-0.9,1.7c0,0.8,0.3,1.4,0.9,1.8c0.6,0.4,1.9,0.8,3.8,1.3
		c1.9,0.5,3.4,1.1,4.4,2c1,0.9,1.5,2.1,1.5,3.8c0,1.7-0.6,3-1.9,4c-1.3,1-2.9,1.5-4.9,1.5c-3,0-5.6-1-7.9-3.1l2-2.4
		c1.9,1.7,3.9,2.5,6,2.5c1,0,1.9-0.2,2.5-0.7c0.6-0.4,0.9-1,0.9-1.8s-0.3-1.3-0.9-1.7c-0.6-0.4-1.6-0.8-2.9-1.1
		c-1.4-0.3-2.5-0.6-3.2-0.9c-0.7-0.3-1.4-0.6-1.9-1.1c-1.1-0.9-1.7-2.2-1.7-3.9c0-1.8,0.6-3.1,1.9-4.1s2.9-1.4,4.7-1.4
		c1.2,0,2.4,0.2,3.6,0.6s2.2,1,3.1,1.7l-1.7,2.4c-0.6-0.5-1.3-0.9-2.3-1.3S153.1,65,152.2,65z"/>
	<path class="st1" d="M172.1,81.5h-3.6l-7.6-19h3.6l5.8,14.2l5.8-14.2h3.6L172.1,81.5z"/>
	<path class="st1" d="M195.8,62.5v3h-10.1v5h9.1v2.9h-9.1v5.1h10.5v3h-13.7v-19H195.8z"/>
	<path class="st1" d="M214.5,62.5h3.2v19h-3.5l-10.8-13.9v13.9h-3.2v-19h3.2l11,14.2V62.5z"/>
	<path class="st1" d="M230.4,81.5v-19h3.2v8.2h9.4v-8.2h3.2v19H243v-7.8h-9.4v7.8H230.4z"/>
	<path class="st1" d="M254.2,77.2l-1.9,4.3h-3.4l8.4-19h3.4l8.4,19h-3.4l-1.9-4.3H254.2z M262.4,74.2l-3.5-7.8l-3.5,7.8H262.4z"/>
	<path class="st1" d="M280,81.5h-8.3v-19h7.4c1.3,0,2.4,0.2,3.3,0.5c0.9,0.3,1.6,0.7,2.1,1.3c0.9,1,1.3,2.1,1.3,3.3
		c0,1.5-0.5,2.6-1.4,3.3c-0.3,0.3-0.6,0.4-0.7,0.5s-0.4,0.2-0.7,0.3c1.2,0.3,2.1,0.8,2.8,1.6c0.7,0.8,1,1.8,1,3
		c0,1.3-0.5,2.5-1.4,3.5C284.4,80.9,282.6,81.5,280,81.5z M274.9,70.4h4.1c2.3,0,3.5-0.8,3.5-2.4c0-0.9-0.3-1.6-0.8-2
		s-1.4-0.6-2.6-0.6h-4.1V70.4z M274.9,78.6h5c1.2,0,2.1-0.2,2.7-0.6c0.6-0.4,0.9-1.1,0.9-2.1c0-1.7-1.3-2.5-4-2.5h-4.6V78.6z"/>
	<path class="st1" d="M304.2,62.5v3h-10.1v5h9.1v2.9h-9.1v5.1h10.5v3h-13.7v-19H304.2z"/>
	<path class="st1" d="M319.9,81.5l-4.7-7.1h-0.1l-4.7,7.1h-4l6.5-9.8l-6.1-9.2h4l4.2,6.4h0.1l4.2-6.4h4l-6.1,9.2l6.5,9.8H319.9z"/>
</g>
</svg>
